# xmcd
#
# Track frame offsets:
#	150
#	14699
#	26268
#	38736
#	53576
#	66782
#	81605
#	87912
#	100887
#	113673
#	129584
#	142064
#	155791
#	173568
#	185914
#
# Disc length: 2699 seconds
#
# Revision: 1
# Processed by: cddbd v1.5.2PL0 Copyright (c) Steve Scherf et al.
# Submitted via: audiograbber 1.83.01
#
DISCID=cd0a890f
DTITLE=Various Artist - Certified #1 Country Hits, cd 3
DYEAR=2011
DGENRE=Country
TTITLE0=Lynn Anderson - Rose Garden
TTITLE1=Lynn Anderson - You're My Man
TTITLE2=Faron Young - It's Four In The Morning
TTITLE3=Don Gibson - Woman
TTITLE4=Lynn Anderson - Keep Me In Mind
TTITLE5=Jeanne Pruett - Satin Sheets
TTITLE6=Mickey Gilley - Roomful Of Roses
TTITLE7=Lynn Anderson - What A Man My Man
TTITLE8=T.G. Sheppard - Devil In A Bottle
TTITLE9=B.J. Thomas - Another Somebody Done Somebody Wrong Song
TTITLE10=T.G. Sheppard - Tryin To Beat The Morning Home
TTITLE11=Mickey Gilley - Don't The Girls Get Prettier At Closing Time
TTITLE12=Glen Campbell - Southern Nights
TTITLE13=Johnny Paycheck - Take This Job And Shove It
TTITLE14=T.G. Sheppard (October 1979) - Last Cheaters Waltz
EXTD=
EXTT0=
EXTT1=
EXTT2=
EXTT3=
EXTT4=
EXTT5=
EXTT6=
EXTT7=
EXTT8=
EXTT9=
EXTT10=
EXTT11=
EXTT12=
EXTT13=
EXTT14=
PLAYORDER=
